<svg width="47" height="44" viewBox="0 0 47 44" fill="none" xmlns="http://www.w3.org/2000/svg">
<g filter="url(#filter0_d_555_8)">
<path fill-rule="evenodd" clip-rule="evenodd" d="M23.551 0.916626C12.7625 0.916626 4.01855 9.66058 4.01855 20.449C4.01855 29.0775 9.61351 36.3997 17.3763 38.9847C18.3536 39.1609 18.7061 38.5597 18.7061 38.0427C18.7061 37.5786 18.6904 36.3487 18.6845 34.7214C13.2501 35.9003 12.1026 32.1011 12.1026 32.1011C11.2174 29.8451 9.93468 29.2439 9.93468 29.2439C8.16239 28.0317 10.0698 28.0591 10.0698 28.0591C12.0321 28.1962 13.0602 30.0723 13.0602 30.0723C14.8031 33.0568 17.6348 32.1951 18.7433 31.6957C18.9215 30.4326 19.4306 29.571 19.9868 29.0833C15.6511 28.5918 11.0921 26.9155 11.0921 19.4287C11.0921 17.3 11.8538 15.5532 13.0974 14.1902C12.8996 13.6947 12.224 11.707 13.2913 9.02021C13.2913 9.02021 14.9304 8.49342 18.661 11.0197C20.2543 10.5862 21.8978 10.365 23.549 10.3617C25.2002 10.3643 26.8439 10.5856 28.437 11.0197C32.1696 8.49146 33.8068 9.02021 33.8068 9.02021C34.8741 11.707 34.2043 13.6947 34.0006 14.1902C35.254 15.5532 36.006 17.2981 36.006 19.4287C36.006 26.935 31.4431 28.584 27.0916 29.0677C27.7868 29.6708 28.4135 30.8615 28.4135 32.6827C28.4135 35.2952 28.39 37.4023 28.39 38.0427C28.39 38.5656 28.7386 39.1727 29.7354 38.9807C37.4943 36.3918 43.0834 29.0755 43.0834 20.449C43.0834 9.66058 34.3394 0.916626 23.551 0.916626Z" fill="white"/>
</g>
<defs>
<filter id="filter0_d_555_8" x="0.0185547" y="0.916626" width="47.0649" height="46.1003" filterUnits="userSpaceOnUse" color-interpolation-filters="sRGB">
<feFlood flood-opacity="0" result="BackgroundImageFix"/>
<feColorMatrix in="SourceAlpha" type="matrix" values="0 0 0 0 0 0 0 0 0 0 0 0 0 0 0 0 0 0 127 0" result="hardAlpha"/>
<feOffset dy="4"/>
<feGaussianBlur stdDeviation="2"/>
<feComposite in2="hardAlpha" operator="out"/>
<feColorMatrix type="matrix" values="0 0 0 0 0 0 0 0 0 0 0 0 0 0 0 0 0 0 0.25 0"/>
<feBlend mode="normal" in2="BackgroundImageFix" result="effect1_dropShadow_555_8"/>
<feBlend mode="normal" in="SourceGraphic" in2="effect1_dropShadow_555_8" result="shape"/>
</filter>
</defs>
</svg>
