<svg width="42" height="36" viewBox="0 0 35 36" fill="none" xmlns="http://www.w3.org/2000/svg">
<g filter="url(#filter0_d_439_247)">
<path d="M30.6877 11.4536H17.8131V16.8614H25.2221C24.5326 20.2979 21.646 22.2724 17.8131 22.2724C16.7406 22.2743 15.6783 22.0615 14.6871 21.6463C13.696 21.2312 12.7954 20.6218 12.0371 19.8531C11.2788 19.0844 10.6777 18.1715 10.2683 17.1668C9.85882 16.1621 9.6491 15.0854 9.65114 13.9984C9.64931 12.9116 9.85917 11.835 10.2687 10.8305C10.6782 9.82603 11.2794 8.91335 12.0376 8.14481C12.7959 7.37628 13.6964 6.76701 14.6875 6.35194C15.6786 5.93687 16.7408 5.72417 17.8131 5.72603C19.7597 5.72603 21.5192 6.42649 22.8999 7.572L26.9198 3.49926C24.4707 1.33518 21.3305 5.96385e-05 17.8131 5.96385e-05C15.9977 -0.00531872 14.1991 0.353129 12.5208 1.05479C10.8425 1.75644 9.3177 2.78747 8.03398 4.08855C6.75026 5.38964 5.733 6.93512 5.04071 8.6361C4.34842 10.3371 3.99476 12.16 4.00006 14C3.99455 15.8401 4.34807 17.6631 5.04029 19.3641C5.73251 21.0652 6.74976 22.6108 8.03352 23.9119C9.31728 25.213 10.8422 26.244 12.5206 26.9456C14.1989 27.6472 15.9976 28.0055 17.8131 27.9999C24.7197 27.9999 31 22.9086 31 14C31 13.1726 30.8748 12.281 30.6877 11.4536Z" fill="white"/>
</g>
<defs>
<filter id="filter0_d_439_247" x="0" y="0" width="35" height="36" filterUnits="userSpaceOnUse" color-interpolation-filters="sRGB">
<feFlood flood-opacity="0" result="BackgroundImageFix"/>
<feColorMatrix in="SourceAlpha" type="matrix" values="0 0 0 0 0 0 0 0 0 0 0 0 0 0 0 0 0 0 127 0" result="hardAlpha"/>
<feOffset dy="4"/>
<feGaussianBlur stdDeviation="2"/>
<feComposite in2="hardAlpha" operator="out"/>
<feColorMatrix type="matrix" values="0 0 0 0 0 0 0 0 0 0 0 0 0 0 0 0 0 0 0.25 0"/>
<feBlend mode="normal" in2="BackgroundImageFix" result="effect1_dropShadow_439_247"/>
<feBlend mode="normal" in="SourceGraphic" in2="effect1_dropShadow_439_247" result="shape"/>
</filter>
</defs>
</svg>
