<svg width="42" height="36" viewBox="0 0 42 36" fill="none" xmlns="http://www.w3.org/2000/svg">
<g filter="url(#filter0_d_439_249)">
<path d="M34.5069 6.97807C34.5294 7.28505 34.5294 7.59028 34.5294 7.8955C34.5294 17.2364 27.5173 28 14.7024 28C10.7543 28 7.08651 26.8405 4 24.8267C4.56055 24.8916 5.10035 24.9144 5.68339 24.9144C8.82006 24.9221 11.8679 23.8587 14.3356 21.8955C12.8814 21.8688 11.4716 21.3823 10.3032 20.504C9.13478 19.6256 8.26606 18.3993 7.81834 16.9961C8.24913 17.061 8.68166 17.1049 9.13495 17.1049C9.75952 17.1049 10.3875 17.0172 10.9706 16.8646C9.39232 16.5415 7.97314 15.6741 6.95436 14.4099C5.93558 13.1458 5.38009 11.5628 5.38235 9.93033V9.84263C6.31142 10.3671 7.38927 10.6951 8.53114 10.739C7.57455 10.0945 6.79017 9.21994 6.24799 8.19334C5.70581 7.16675 5.42269 6.02004 5.42388 4.85553C5.42388 3.54342 5.76817 2.34006 6.37197 1.29107C8.12308 3.47504 10.3071 5.26173 12.7826 6.53542C15.2581 7.80912 17.9698 8.54141 20.7422 8.68488C20.6349 8.15863 20.5692 7.61308 20.5692 7.06578C20.5687 6.13776 20.7487 5.21875 21.0987 4.36128C21.4488 3.50381 21.9621 2.7247 22.6093 2.06849C23.2565 1.41228 24.025 0.891838 24.8707 0.536912C25.7164 0.181987 26.6228 -0.000460257 27.5381 8.71931e-07C29.545 8.71931e-07 31.3564 0.852525 32.6298 2.2313C34.1899 1.9254 35.6861 1.34794 37.0519 0.524496C36.5319 2.1573 35.4425 3.54184 33.9879 4.41874C35.3716 4.25873 36.7239 3.88978 38 3.32415C37.0469 4.73291 35.866 5.96828 34.5069 6.97807Z" fill="white"/>
</g>
<defs>
<filter id="filter0_d_439_249" x="0" y="0" width="42" height="36" filterUnits="userSpaceOnUse" color-interpolation-filters="sRGB">
<feFlood flood-opacity="0" result="BackgroundImageFix"/>
<feColorMatrix in="SourceAlpha" type="matrix" values="0 0 0 0 0 0 0 0 0 0 0 0 0 0 0 0 0 0 127 0" result="hardAlpha"/>
<feOffset dy="4"/>
<feGaussianBlur stdDeviation="2"/>
<feComposite in2="hardAlpha" operator="out"/>
<feColorMatrix type="matrix" values="0 0 0 0 0 0 0 0 0 0 0 0 0 0 0 0 0 0 0.25 0"/>
<feBlend mode="normal" in2="BackgroundImageFix" result="effect1_dropShadow_439_249"/>
<feBlend mode="normal" in="SourceGraphic" in2="effect1_dropShadow_439_249" result="shape"/>
</filter>
</defs>
</svg>
